<svg xmlns="http://www.w3.org/2000/svg" width="280" height="83.65" viewBox="0 0 280 83.65">
  <g id="Inspect_logo" data-name="Inspect logo" transform="translate(-247 -471)">
    <path id="Path_477" data-name="Path 477" d="M-134.244-64.152h11.028V1.208h-11.028ZM-106.45-36.9h7.531q.179,3.228.4,5.245t.4,4.528a19.325,19.325,0,0,1,5.828-7.8,14.769,14.769,0,0,1,9.414-2.959q5.828,0,9.28,3.183a11.333,11.333,0,0,1,3.631,8.293V1.208h-8.517v-23.58a7.768,7.768,0,0,0-1.972-4.8q-1.793-2.017-5.559-2.2a12.049,12.049,0,0,0-4.8.941,11.5,11.5,0,0,0-3.766,2.555,11.124,11.124,0,0,0-2.421,3.855,13.517,13.517,0,0,0-.852,4.841V1.208h-8.607Z" transform="translate(381.244 535.152)" fill="#5ac8fa"/>
    <path id="Path_478" data-name="Path 478" d="M-34.883-33.685q-.538.807-1.3,1.838t-1.479,1.928q-.717.9-1.21,1.569l-.493.672-.448-.314a7.256,7.256,0,0,0-1.3-.672,16.764,16.764,0,0,0-1.972-.672,8.44,8.44,0,0,0-2.286-.314,6.842,6.842,0,0,0-2.645.583,2.312,2.312,0,0,0-1.39,2.376,3.226,3.226,0,0,0,1.21,2.555,13.992,13.992,0,0,0,2.959,1.883q1.748.852,3.855,1.748a17.582,17.582,0,0,1,3.855,2.241A11.929,11.929,0,0,1-34.569-14.9a9.517,9.517,0,0,1,1.21,4.976A11.729,11.729,0,0,1-34.3-5.174,10.28,10.28,0,0,1-36.99-1.5,13.3,13.3,0,0,1-41.159.923a15.666,15.666,0,0,1-5.469.9A20.7,20.7,0,0,1-53.756.564,12.525,12.525,0,0,1-59.18-3.022q.628-.717,1.524-1.793t1.7-2.062q.807-.986,1.39-1.659l.583-.672q0-.09.583.314a17.924,17.924,0,0,0,1.569.941,14.388,14.388,0,0,0,2.331.986,8.732,8.732,0,0,0,2.779.448A5.337,5.337,0,0,0-43.266-7.5a3.013,3.013,0,0,0,1.21-2.421,2.774,2.774,0,0,0-1.21-2.331,15.118,15.118,0,0,0-2.959-1.659q-1.748-.762-3.855-1.659a17.582,17.582,0,0,1-3.855-2.241,11.533,11.533,0,0,1-2.959-3.452A10.6,10.6,0,0,1-58.1-26.6a11.2,11.2,0,0,1,1.166-5.379,10.382,10.382,0,0,1,3-3.5,12.035,12.035,0,0,1,3.99-1.928,16.079,16.079,0,0,1,4.214-.583,16.514,16.514,0,0,1,5.783,1.121A13.941,13.941,0,0,1-34.883-33.685Zm45.636,15.6a12.006,12.006,0,0,0-2.914-8.293A10.3,10.3,0,0,0-.275-29.65a12.8,12.8,0,0,0-4.752.852,10.834,10.834,0,0,0-3.721,2.421A11.522,11.522,0,0,0-11.213-22.7a11.442,11.442,0,0,0-.9,4.528,12,12,0,0,0,.9,4.662A11.4,11.4,0,0,0-8.748-9.791,11.4,11.4,0,0,0-5.027-7.325a12.238,12.238,0,0,0,4.752.9,11.583,11.583,0,0,0,4.662-.9,9.457,9.457,0,0,0,3.452-2.51,11.787,11.787,0,0,0,2.152-3.721A13.212,13.212,0,0,0,10.753-18.084Zm9.324.179A21.408,21.408,0,0,1,18.643-9.97,18.715,18.715,0,0,1,14.563-3.65,18.36,18.36,0,0,1,8.242.52,21.421,21.421,0,0,1,.173,2,17.314,17.314,0,0,1-7.582.34,11.583,11.583,0,0,1-12.2-3.2a4.761,4.761,0,0,0,.045.672,5.5,5.5,0,0,1,.045.762V19.3h-8.607V-37.092h8.248a17.73,17.73,0,0,0,.179,2.51,16.553,16.553,0,0,1,.179,2.331,17.743,17.743,0,0,1,1.838-1.928,12.923,12.923,0,0,1,2.735-1.883A19.156,19.156,0,0,1-3.906-37.5a15.951,15.951,0,0,1,4.438-.583,21.922,21.922,0,0,1,7.98,1.39,16.915,16.915,0,0,1,6.142,4.035,18.736,18.736,0,0,1,3.99,6.366A23.155,23.155,0,0,1,20.077-17.905ZM65.533-3.381A20.2,20.2,0,0,1,58.809.564,23.442,23.442,0,0,1,50.74,2,20.21,20.21,0,0,1,42.805.43a20.028,20.028,0,0,1-6.455-4.3A20.941,20.941,0,0,1,32-10.239a18.879,18.879,0,0,1-1.614-7.755A18.879,18.879,0,0,1,32-25.75a20.941,20.941,0,0,1,4.348-6.366,20.3,20.3,0,0,1,6.366-4.3,19.121,19.121,0,0,1,7.666-1.569,17.655,17.655,0,0,1,11.342,3.9,21.108,21.108,0,0,1,6.948,10.266q-2.69.986-6.231,2.376t-7.4,2.914q-3.855,1.524-7.711,3.093T40.25-12.615a12.131,12.131,0,0,0,4.214,4.483,11.152,11.152,0,0,0,6.1,1.7,13.88,13.88,0,0,0,4.707-.852,11.038,11.038,0,0,0,3.9-2.286ZM58-25.795a6.546,6.546,0,0,0-3.228-2.914,10.467,10.467,0,0,0-4.214-.941,11.283,11.283,0,0,0-4.573.941,11.464,11.464,0,0,0-3.676,2.51,12.238,12.238,0,0,0-2.421,3.586,10.162,10.162,0,0,0-.9,4.169v.359q2.241-.9,4.8-1.928t5.11-2.107q2.555-1.076,4.886-2.017T58-25.795ZM105.252-8.939q1.345,1.7,2.6,3.272t2.6,3.183A21.4,21.4,0,0,1,104.624.789,19.5,19.5,0,0,1,97.72,2,20.21,20.21,0,0,1,89.786.43a20.028,20.028,0,0,1-6.455-4.3,20.786,20.786,0,0,1-4.348-6.411,19.191,19.191,0,0,1-1.614-7.8,18.879,18.879,0,0,1,1.614-7.755,20.941,20.941,0,0,1,4.348-6.366,20.028,20.028,0,0,1,6.455-4.3,20.21,20.21,0,0,1,7.935-1.569,20.129,20.129,0,0,1,7.038,1.21,22.646,22.646,0,0,1,5.962,3.272l-5.469,6.366A11.964,11.964,0,0,0,97.72-29.65a12.238,12.238,0,0,0-4.752.9,11.777,11.777,0,0,0-3.721,2.421A10.464,10.464,0,0,0,86.827-22.7a12.208,12.208,0,0,0-.852,4.617,11.966,11.966,0,0,0,.852,4.528,11.431,11.431,0,0,0,2.421,3.721,11.057,11.057,0,0,0,3.721,2.51,12.238,12.238,0,0,0,4.752.9A11.455,11.455,0,0,0,105.252-8.939Zm20.621-44.829h8.517v16.676h9.952v7.711H134.39V1.013h-8.517V-29.381h-6.455v-7.711h6.455Z" transform="translate(382.658 535.348)" fill="#fff"/>
  </g>
</svg>
