<svg xmlns="http://www.w3.org/2000/svg" width="16.5" height="16.5" viewBox="0 0 16.5 16.5">
  <g id="Edit_Blue" data-name="Edit Blue" transform="translate(0.036 0.044)">
    <g id="Group_993" data-name="Group 993" transform="translate(0.714 0.706)">
      <path id="Path_503" data-name="Path 503" d="M9.889,10.516l-3.46.623.577-3.506,6.609-6.586a1.153,1.153,0,0,1,1.638,0L16.474,2.27a1.153,1.153,0,0,1,0,1.638Z" transform="translate(-1.815 -0.706)" fill="none" stroke="#5ac8fa" stroke-linecap="round" stroke-linejoin="round" stroke-width="1.5"/>
      <path id="Path_504" data-name="Path 504" d="M13.978,11.507v3.46a1.153,1.153,0,0,1-1.153,1.153H1.868A1.153,1.153,0,0,1,.714,14.967V4.01A1.153,1.153,0,0,1,1.868,2.857h3.46" transform="translate(-0.714 -1.12)" fill="none" stroke="#5ac8fa" stroke-linecap="round" stroke-linejoin="round" stroke-width="1.5"/>
    </g>
  </g>
</svg>
