<svg xmlns="http://www.w3.org/2000/svg" width="30" height="30" viewBox="0 0 30 30">
  <g id="Hide_Password" data-name="Hide Password" transform="translate(-551 -687)">
    <g id="_background" data-name="🎨background" transform="translate(551 687)">
      <path id="_background-2" data-name="🎨background" d="M1.1,3.98A3.214,3.214,0,0,1,3.98,1.1L15,0,26.02,1.1A3.214,3.214,0,0,1,28.9,3.98L30,15,28.9,26.02A3.214,3.214,0,0,1,26.02,28.9L15,30,3.98,28.9A3.214,3.214,0,0,1,1.1,26.02L0,15Z" fill="none"/>
      <path id="_background-3" data-name="🎨background" d="M1.1,3.98A3.214,3.214,0,0,1,3.98,1.1L15,0,26.02,1.1A3.214,3.214,0,0,1,28.9,3.98L30,15,28.9,26.02A3.214,3.214,0,0,1,26.02,28.9L15,30,3.98,28.9A3.214,3.214,0,0,1,1.1,26.02L0,15Z" fill="#ebf0f7" style="mix-blend-mode: multiply;isolation: isolate"/>
    </g>
    <g id="Group_1130" data-name="Group 1130" transform="translate(54 -3)">
      <rect id="bounds" width="18" height="18" transform="translate(503 696)" fill="rgba(28,143,248,0.34)" opacity="0"/>
      <g id="eye-off" transform="translate(505.4 698.4)">
        <path id="Path" d="M9.7,6.8a5.767,5.767,0,0,1-3.4,1.18C2.291,7.984,0,3.4,0,3.4A10.567,10.567,0,0,1,2.9,0" transform="translate(0 2.898)" fill="none" stroke="#6c7b8a" stroke-linecap="round" stroke-linejoin="round" stroke-width="1.5"/>
        <path id="Path-2" data-name="Path" d="M0,.137A5.223,5.223,0,0,1,1.2,0C5.212,0,7.5,4.582,7.5,4.582A10.6,10.6,0,0,1,6.266,6.409" transform="translate(5.097 1.718)" fill="none" stroke="#6c7b8a" stroke-linecap="round" stroke-linejoin="round" stroke-width="1.5"/>
        <path id="Path-3" data-name="Path" d="M2.975,2.428A1.718,1.718,0,1,1,.547,0" transform="translate(4.539 5.086)" fill="none" stroke="#6c7b8a" stroke-linecap="round" stroke-linejoin="round" stroke-width="1.5"/>
        <path id="Shape" d="M0,0,12.6,12.6" fill="none" stroke="#6c7b8a" stroke-linecap="round" stroke-linejoin="round" stroke-width="1.5"/>
      </g>
    </g>
  </g>
</svg>
