<svg xmlns="http://www.w3.org/2000/svg" width="200" height="59.75" viewBox="0 0 200 59.75">
  <g id="Inspect_logo" data-name="Inspect logo" transform="translate(-247 -471)">
    <path id="Path_477" data-name="Path 477" d="M-134.244-64.152h7.877v46.686h-7.877Zm19.853,19.468h5.379q.128,2.305.288,3.746t.288,3.234a13.8,13.8,0,0,1,4.163-5.572,10.55,10.55,0,0,1,6.724-2.113,9.4,9.4,0,0,1,6.628,2.273,8.1,8.1,0,0,1,2.594,5.924v19.725h-6.084V-34.309a5.548,5.548,0,0,0-1.409-3.426A5.413,5.413,0,0,0-99.79-39.3a8.606,8.606,0,0,0-3.426.672,8.217,8.217,0,0,0-2.69,1.825,7.946,7.946,0,0,0-1.729,2.754,9.655,9.655,0,0,0-.608,3.458v13.128h-6.148Z" transform="translate(381.244 535.152)" fill="#5ac8fa"/>
    <path id="Path_478" data-name="Path 478" d="M-41.825-39.423q-.384.576-.929,1.313t-1.057,1.377q-.512.64-.865,1.121l-.352.48-.32-.224a5.183,5.183,0,0,0-.929-.48,11.975,11.975,0,0,0-1.409-.48,6.028,6.028,0,0,0-1.633-.224,4.887,4.887,0,0,0-1.889.416,1.651,1.651,0,0,0-.993,1.7,2.3,2.3,0,0,0,.865,1.825,9.994,9.994,0,0,0,2.113,1.345q1.249.608,2.754,1.249a12.558,12.558,0,0,1,2.754,1.6,8.52,8.52,0,0,1,2.113,2.4,6.8,6.8,0,0,1,.865,3.554,8.378,8.378,0,0,1-.672,3.394,7.343,7.343,0,0,1-1.921,2.626A9.5,9.5,0,0,1-46.308-14.7a11.19,11.19,0,0,1-3.906.64,14.786,14.786,0,0,1-5.091-.9,8.946,8.946,0,0,1-3.874-2.562q.448-.512,1.089-1.281t1.217-1.473q.576-.7.993-1.185l.416-.48q0-.064.416.224a12.8,12.8,0,0,0,1.121.672,10.277,10.277,0,0,0,1.665.7,6.237,6.237,0,0,0,1.985.32,3.812,3.812,0,0,0,2.466-.7,2.152,2.152,0,0,0,.865-1.729,1.981,1.981,0,0,0-.865-1.665A10.8,10.8,0,0,0-49.926-25.3q-1.249-.544-2.754-1.185a12.558,12.558,0,0,1-2.754-1.6,8.238,8.238,0,0,1-2.113-2.466,7.568,7.568,0,0,1-.865-3.81,8,8,0,0,1,.833-3.842,7.416,7.416,0,0,1,2.145-2.5,8.6,8.6,0,0,1,2.85-1.377,11.485,11.485,0,0,1,3.01-.416,11.8,11.8,0,0,1,4.131.8A9.958,9.958,0,0,1-41.825-39.423Zm32.6,11.143A8.576,8.576,0,0,0-11.309-34.2a7.358,7.358,0,0,0-5.8-2.337,9.146,9.146,0,0,0-3.394.608A7.739,7.739,0,0,0-23.157-34.2a8.23,8.23,0,0,0-1.761,2.626,8.173,8.173,0,0,0-.64,3.234,8.572,8.572,0,0,0,.64,3.33,8.141,8.141,0,0,0,1.761,2.658A8.141,8.141,0,0,0-20.5-20.595a8.741,8.741,0,0,0,3.394.64,8.273,8.273,0,0,0,3.33-.64,6.755,6.755,0,0,0,2.466-1.793,8.419,8.419,0,0,0,1.537-2.658A9.437,9.437,0,0,0-9.228-28.28Zm6.66.128a15.291,15.291,0,0,1-1.025,5.668,13.368,13.368,0,0,1-2.914,4.515,13.114,13.114,0,0,1-4.515,2.978,15.3,15.3,0,0,1-5.764,1.057,12.367,12.367,0,0,1-5.54-1.185,8.273,8.273,0,0,1-3.3-2.53,3.4,3.4,0,0,0,.032.48,3.929,3.929,0,0,1,.032.544v15.05h-6.148V-41.856h5.892a12.664,12.664,0,0,0,.128,1.793,11.824,11.824,0,0,1,.128,1.665,12.673,12.673,0,0,1,1.313-1.377,9.231,9.231,0,0,1,1.953-1.345A13.683,13.683,0,0,1-19.7-42.145a11.393,11.393,0,0,1,3.17-.416,15.659,15.659,0,0,1,5.7.993,12.082,12.082,0,0,1,4.387,2.882,13.383,13.383,0,0,1,2.85,4.547A16.539,16.539,0,0,1-2.568-28.152ZM29.9-17.777a14.425,14.425,0,0,1-4.8,2.818,16.744,16.744,0,0,1-5.764,1.025,14.436,14.436,0,0,1-5.668-1.121,14.306,14.306,0,0,1-4.611-3.074A14.958,14.958,0,0,1,5.95-22.676,13.485,13.485,0,0,1,4.8-28.216a13.485,13.485,0,0,1,1.153-5.54A14.958,14.958,0,0,1,9.056-38.3,14.5,14.5,0,0,1,13.6-41.376,13.658,13.658,0,0,1,19.078-42.5a12.61,12.61,0,0,1,8.1,2.786,15.077,15.077,0,0,1,4.963,7.333q-1.921.7-4.451,1.7T22.408-28.6Q19.654-27.511,16.9-26.39t-5.059,2.017a8.665,8.665,0,0,0,3.01,3.2,7.966,7.966,0,0,0,4.355,1.217,9.914,9.914,0,0,0,3.362-.608A7.884,7.884,0,0,0,25.354-22.2Zm-5.379-16.01a4.676,4.676,0,0,0-2.305-2.081,7.477,7.477,0,0,0-3.01-.672,8.059,8.059,0,0,0-3.266.672,8.189,8.189,0,0,0-2.626,1.793,8.741,8.741,0,0,0-1.729,2.562,7.258,7.258,0,0,0-.64,2.978v.256q1.6-.64,3.426-1.377t3.65-1.5q1.825-.768,3.49-1.441T24.522-33.787Zm33.75,12.04q.961,1.217,1.857,2.337t1.857,2.273A15.288,15.288,0,0,1,57.823-14.8a13.929,13.929,0,0,1-4.931.865,14.436,14.436,0,0,1-5.668-1.121,14.306,14.306,0,0,1-4.611-3.074,14.848,14.848,0,0,1-3.106-4.579,13.708,13.708,0,0,1-1.153-5.572,13.485,13.485,0,0,1,1.153-5.54,14.958,14.958,0,0,1,3.106-4.547,14.306,14.306,0,0,1,4.611-3.074,14.436,14.436,0,0,1,5.668-1.121,14.378,14.378,0,0,1,5.027.865,16.176,16.176,0,0,1,4.259,2.337l-3.906,4.547a8.546,8.546,0,0,0-5.379-1.729,8.741,8.741,0,0,0-3.394.64,8.412,8.412,0,0,0-2.658,1.729,7.474,7.474,0,0,0-1.729,2.594,8.72,8.72,0,0,0-.608,3.3,8.547,8.547,0,0,0,.608,3.234,8.165,8.165,0,0,0,1.729,2.658A7.9,7.9,0,0,0,49.5-20.595a8.741,8.741,0,0,0,3.394.64A8.182,8.182,0,0,0,58.271-21.748ZM73-53.768h6.084v11.912h7.109v5.508H79.084v21.71H73v-21.71H68.39v-5.508H73Z" transform="translate(360.807 532.325)" fill="#140f26"/>
  </g>
</svg>
