<svg xmlns="http://www.w3.org/2000/svg" width="24" height="24" viewBox="0 0 24 24">
  <g id="PDF" transform="translate(-11424 -2701)">
    <rect id="Rectangle_1331" data-name="Rectangle 1331" width="24" height="24" transform="translate(11424 2701)" fill="none"/>
    <g id="icons8-adobe-acrobat-reader" transform="translate(11420 2697)">
      <path id="Path_14173" data-name="Path 14173" d="M23.778,26H8.222A2.222,2.222,0,0,1,6,23.778V8.222A2.222,2.222,0,0,1,8.222,6H23.778A2.222,2.222,0,0,1,26,8.222V23.778A2.222,2.222,0,0,1,23.778,26Z" fill="#e53935"/>
      <path id="Path_14174" data-name="Path 14174" d="M24.988,20.666c-.94-.976-3.508-.578-4.122-.506a10.919,10.919,0,0,1-1.736-2.278,10.509,10.509,0,0,0,.578-3c0-.9-.362-1.881-1.374-1.881a1.051,1.051,0,0,0-.868.506c-.434.759-.253,2.278.434,3.833a26.141,26.141,0,0,1-1.772,4.122c-1.049.434-3.254,1.447-3.435,2.531a.966.966,0,0,0,.289.9,1.382,1.382,0,0,0,.9.326c1.338,0,2.639-1.844,3.544-3.4a23.934,23.934,0,0,1,3.146-.832,5,5,0,0,0,3.291,1.41c.868,0,1.193-.362,1.3-.687A.94.94,0,0,0,24.988,20.666Zm-.9.614c-.036.253-.362.506-.94.362A4.959,4.959,0,0,1,21.3,20.7a7.8,7.8,0,0,1,2.278-.036C23.868,20.738,24.157,20.919,24.084,21.281Zm-6.039-7.449a.368.368,0,0,1,.289-.181c.326,0,.4.4.4.723a7.939,7.939,0,0,1-.434,2.242A3.934,3.934,0,0,1,18.046,13.832Zm-.072,7.015a20.087,20.087,0,0,0,.832-2.025A9.233,9.233,0,0,0,19.962,20.3C19.962,20.341,18.841,20.558,17.973,20.847ZM15.84,22.293c-.832,1.374-1.7,2.242-2.169,2.242a.518.518,0,0,1-.217-.072.275.275,0,0,1-.108-.326C13.453,23.631,14.393,22.944,15.84,22.293Z" transform="translate(-2.966 -3.111)" fill="#fff"/>
    </g>
  </g>
</svg>
