<svg xmlns="http://www.w3.org/2000/svg" width="30" height="30" viewBox="0 0 30 30">
  <g id="Show_Password" data-name="Show Password" transform="translate(-620 -687)">
    <g id="_background" data-name="🎨background" transform="translate(620 687)">
      <path id="_background-2" data-name="🎨background" d="M1.1,3.98A3.214,3.214,0,0,1,3.98,1.1L15,0,26.02,1.1A3.214,3.214,0,0,1,28.9,3.98L30,15,28.9,26.02A3.214,3.214,0,0,1,26.02,28.9L15,30,3.98,28.9A3.214,3.214,0,0,1,1.1,26.02L0,15Z" fill="none"/>
      <path id="_background-3" data-name="🎨background" d="M1.1,3.98A3.214,3.214,0,0,1,3.98,1.1L15,0,26.02,1.1A3.214,3.214,0,0,1,28.9,3.98L30,15,28.9,26.02A3.214,3.214,0,0,1,26.02,28.9L15,30,3.98,28.9A3.214,3.214,0,0,1,1.1,26.02L0,15Z" fill="#ebf0f7" style="mix-blend-mode: multiply;isolation: isolate"/>
    </g>
    <g id="Group_1108" data-name="Group 1108" transform="translate(38 5)">
      <rect id="bounds" width="18" height="18" transform="translate(588 688)" fill="rgba(28,143,248,0.34)" opacity="0"/>
      <g id="eye" transform="translate(590.4 692.8)">
        <path id="Shape" d="M0,4.5S2.291,0,6.3,0s6.3,4.5,6.3,4.5S10.309,9,6.3,9,0,4.5,0,4.5Z" fill="none" stroke="#6c7b8a" stroke-linecap="round" stroke-linejoin="round" stroke-width="1.5"/>
        <ellipse id="Oval" cx="1.718" cy="1.688" rx="1.718" ry="1.688" transform="translate(4.582 2.813)" fill="none" stroke="#6c7b8a" stroke-linecap="round" stroke-linejoin="round" stroke-width="1.5"/>
      </g>
    </g>
  </g>
</svg>
